<svg xmlns="http://www.w3.org/2000/svg" width="283.649" height="68.25" viewBox="0 0 283.649 68.25">
  <g id="Group_137" data-name="Group 137" transform="translate(-793.495 -336.019)">
    <g id="Group_136" data-name="Group 136" transform="translate(793.495 336.019)">
      <path id="Path_184" data-name="Path 184" d="M162.926,325.442H151.5a3.26,3.26,0,0,0-3.311,3.311v31.082a3.284,3.284,0,0,0,6.569,0V350.81h7.424c8.224,0,14.954-4.379,14.954-12.765v-.106C177.132,330.409,171.685,325.442,162.926,325.442Zm7.53,12.763c0,3.9-3.1,6.676-8.064,6.676h-7.637V331.423h7.637c4.914,0,8.064,2.3,8.064,6.676Z" transform="translate(-148.186 -324.8)" fill="#fbb03b"/>
      <path id="Path_185" data-name="Path 185" d="M206.227,324.717a19.155,19.155,0,0,0-19.6,19.334v.106c0,10.521,8.01,19.226,19.493,19.226a19.154,19.154,0,0,0,19.6-19.333v-.107C225.72,333.422,217.708,324.717,206.227,324.717Zm12.6,19.44c0,7.263-5.18,13.138-12.6,13.138s-12.711-5.981-12.711-13.245v-.107c0-7.263,5.18-13.191,12.6-13.191s12.71,6.035,12.71,13.3Z" transform="translate(-152.605 -324.717)" fill="#fbb03b"/>
      <path id="Path_186" data-name="Path 186" d="M269.11,325.14a3.213,3.213,0,0,0-3.2,3.2v22.964l-18.692-24.192a4.138,4.138,0,0,0-3.418-1.923H243.1a3.294,3.294,0,0,0-3.311,3.312v31.349a3.231,3.231,0,0,0,6.462,0V336.142l19.226,24.886A4.134,4.134,0,0,0,268.9,363h.267a3.192,3.192,0,0,0,3.2-3.258v-31.4A3.225,3.225,0,0,0,269.11,325.14Z" transform="translate(-158.718 -324.766)" fill="#fbb03b"/>
      <path id="Path_187" data-name="Path 187" d="M312.023,325.442H287.19a3.044,3.044,0,1,0,0,6.088h9.079v28.305a3.312,3.312,0,0,0,6.623,0V331.53h9.132a3.045,3.045,0,0,0,0-6.088Z" transform="translate(-163.817 -324.8)" fill="#fbb03b"/>
      <path id="Path_188" data-name="Path 188" d="M342,324.717a19.155,19.155,0,0,0-19.6,19.334v.106c0,10.521,8.01,19.226,19.493,19.226a19.154,19.154,0,0,0,19.6-19.333v-.107C361.5,333.422,353.487,324.717,342,324.717Z" transform="translate(-168.215 -324.717)" fill="#fbb03b"/>
      <path id="Path_189" data-name="Path 189" d="M402.365,325.14a3.383,3.383,0,0,0-3.151,2.136l-10.948,27.183-10.789-26.97a3.436,3.436,0,0,0-3.364-2.35,3.239,3.239,0,0,0-3.312,3.2,3.664,3.664,0,0,0,.374,1.548l13.084,30.762a3.893,3.893,0,0,0,3.738,2.67h.374a3.911,3.911,0,0,0,3.791-2.67L405.3,329.679a3.786,3.786,0,0,0,.32-1.389A3.181,3.181,0,0,0,402.365,325.14Z" transform="translate(-173.779 -324.766)" fill="#fbb03b"/>
      <path id="Path_190" data-name="Path 190" d="M421.726,325.14a3.249,3.249,0,0,0-3.311,3.258v31.4a3.284,3.284,0,0,0,6.569,0V328.4A3.236,3.236,0,0,0,421.726,325.14Z" transform="translate(-179.253 -324.766)" fill="#fbb03b"/>
      <path id="Path_191" data-name="Path 191" d="M461.681,325.442H436.847a3.044,3.044,0,0,0,0,6.088h9.08v28.305a3.311,3.311,0,0,0,6.622,0V331.53h9.133a3.045,3.045,0,0,0,0-6.088Z" transform="translate(-181.023 -324.8)" fill="#fbb03b"/>
    </g>
    <text id="Sistema_de_Escalas_de_Trabalho" data-name="Sistema de Escalas de Trabalho" transform="translate(926.474 398.269)" fill="#fbb03b" font-size="16" font-family="SourceSansPro-Regular, Source Sans Pro"><tspan x="-104" y="0">Sistema de Escalas de Trabalho</tspan></text>
  </g>
</svg>
