<svg xmlns="http://www.w3.org/2000/svg" viewBox="0 0 134.4 18.32"><defs><style>.cls-1{fill:#f8af3c;}</style></defs><title>Logo Header</title><g id="Camada_2" data-name="Camada 2"><g id="conteudo"><path class="cls-1" d="M7,.3H1.57A1.55,1.55,0,0,0,0,1.87V16.6a1.53,1.53,0,0,0,1.57,1.54A1.53,1.53,0,0,0,3.11,16.6V12.32H6.63c3.9,0,7.09-2.07,7.09-6v0C13.72,2.66,11.13.3,7,.3Zm3.57,6.05c0,1.85-1.47,3.16-3.82,3.16H3.11V3.14H6.73c2.33,0,3.82,1.09,3.82,3.16Z"/><path class="cls-1" d="M25.41,0a9.08,9.08,0,0,0-9.29,9.16v.05a9,9,0,0,0,9.24,9.11,9.07,9.07,0,0,0,9.28-9.16V9.11A9,9,0,0,0,25.41,0Zm6,9.21a6,6,0,0,1-6,6.23,6.06,6.06,0,0,1-6-6.28V9.11a6,6,0,0,1,6-6.25,6.07,6.07,0,0,1,6,6.3Z"/><path class="cls-1" d="M52.31.18A1.52,1.52,0,0,0,50.79,1.7V12.58L41.93,1.11A2,2,0,0,0,40.31.2H40a1.57,1.57,0,0,0-1.57,1.57V16.63a1.54,1.54,0,0,0,3.07,0V5.39l9.11,11.79a2,2,0,0,0,1.62.94h.12a1.51,1.51,0,0,0,1.52-1.55V1.7A1.52,1.52,0,0,0,52.31.18Z"/><path class="cls-1" d="M70.22.3H58.46a1.45,1.45,0,1,0,0,2.89h4.3V16.6a1.57,1.57,0,0,0,3.14,0V3.19h4.32a1.45,1.45,0,0,0,0-2.89Z"/><path class="cls-1" d="M82.35,0a9.08,9.08,0,0,0-9.29,9.16v.05a9.26,9.26,0,0,0,18.52-.05V9.11A9,9,0,0,0,82.35,0Z"/><path class="cls-1" d="M108.31.18a1.6,1.6,0,0,0-1.49,1l-5.19,12.88L96.52,1.29A1.64,1.64,0,0,0,94.92.18,1.54,1.54,0,0,0,93.35,1.7a1.79,1.79,0,0,0,.18.73L99.73,17a1.84,1.84,0,0,0,1.77,1.27h.18a1.85,1.85,0,0,0,1.8-1.27L109.7,2.33a1.73,1.73,0,0,0,.15-.66A1.51,1.51,0,0,0,108.31.18Z"/><path class="cls-1" d="M114.89.18a1.53,1.53,0,0,0-1.57,1.54V16.6a1.56,1.56,0,0,0,3.11,0V1.72A1.53,1.53,0,0,0,114.89.18Z"/><path class="cls-1" d="M133,.3H121.22a1.45,1.45,0,1,0,0,2.89h4.3V16.6a1.57,1.57,0,0,0,3.14,0V3.19H133A1.45,1.45,0,0,0,133,.3Z"/></g></g></svg>