<svg xmlns="http://www.w3.org/2000/svg" xmlns:xlink="http://www.w3.org/1999/xlink" width="18.848" height="18.856" viewBox="0 0 18.848 18.856"><defs><style>.a{fill:none;}.b{clip-path:url(#a);}.c{fill:#fff;}</style><clipPath id="a"><rect class="a" width="18.848" height="18.857"/></clipPath></defs><g class="b"><path class="c" d="M14.975,18.857v-6.6c0-1.81-.688-2.821-2.118-2.821-1.558,0-2.372,1.053-2.372,2.821v6.6H6.753V6.285h3.733V7.979A4.383,4.383,0,0,1,14.274,5.9c2.665,0,4.575,1.628,4.575,5v7.96Zm-14.6,0V6.285H4.265V18.857ZM0,2.319A2.3,2.3,0,1,1,2.3,4.64,2.31,2.31,0,0,1,0,2.319Z" transform="translate(0 0)"/></g></svg>