<svg xmlns="http://www.w3.org/2000/svg" xmlns:xlink="http://www.w3.org/1999/xlink" width="19.535" height="19.535" viewBox="0 0 19.535 19.535"><defs><style>.a{fill:none;}.b{clip-path:url(#a);}.c{fill:#fff;}</style><clipPath id="a"><rect class="a" width="19.535" height="19.535"/></clipPath></defs><g class="b"><path class="c" d="M-489.925,812.6c-2.652,0-2.985.011-4.027.059a7.158,7.158,0,0,0-2.371.454,4.772,4.772,0,0,0-1.73,1.127,4.776,4.776,0,0,0-1.127,1.73,7.161,7.161,0,0,0-.454,2.371c-.048,1.042-.059,1.374-.059,4.027s.011,2.985.059,4.027a7.162,7.162,0,0,0,.454,2.371,4.778,4.778,0,0,0,1.127,1.73,4.789,4.789,0,0,0,1.73,1.126,7.172,7.172,0,0,0,2.371.454c1.042.048,1.374.059,4.027.059s2.985-.011,4.027-.059a7.175,7.175,0,0,0,2.371-.454,4.8,4.8,0,0,0,1.73-1.126,4.791,4.791,0,0,0,1.127-1.73,7.178,7.178,0,0,0,.454-2.371c.047-1.042.059-1.374.059-4.027s-.011-2.985-.059-4.027a7.177,7.177,0,0,0-.454-2.371,4.789,4.789,0,0,0-1.127-1.73,4.78,4.78,0,0,0-1.73-1.127,7.161,7.161,0,0,0-2.371-.454c-1.042-.048-1.374-.059-4.027-.059m0,1.76c2.608,0,2.917.01,3.947.057a5.41,5.41,0,0,1,1.814.336,3.029,3.029,0,0,1,1.123.731,3.022,3.022,0,0,1,.731,1.123,5.388,5.388,0,0,1,.336,1.813c.047,1.03.057,1.339.057,3.947s-.01,2.917-.057,3.947a5.382,5.382,0,0,1-.336,1.814,3.021,3.021,0,0,1-.731,1.123,3.022,3.022,0,0,1-1.123.731,5.4,5.4,0,0,1-1.814.337c-1.03.047-1.339.057-3.947.057s-2.917-.01-3.947-.057a5.4,5.4,0,0,1-1.814-.337,3.021,3.021,0,0,1-1.123-.731,3.027,3.027,0,0,1-.731-1.123,5.393,5.393,0,0,1-.336-1.814c-.047-1.03-.057-1.339-.057-3.947s.009-2.917.057-3.947a5.4,5.4,0,0,1,.336-1.813,3.029,3.029,0,0,1,.731-1.123,3.028,3.028,0,0,1,1.123-.731,5.4,5.4,0,0,1,1.814-.336c1.03-.047,1.339-.057,3.947-.057" transform="translate(499.692 -812.604)"/><path class="c" d="M-485.11,830.442a3.256,3.256,0,0,1-3.255-3.256,3.255,3.255,0,0,1,3.255-3.255,3.256,3.256,0,0,1,3.256,3.255,3.256,3.256,0,0,1-3.256,3.256m0-8.271a5.016,5.016,0,0,0-5.016,5.015,5.016,5.016,0,0,0,5.016,5.016,5.016,5.016,0,0,0,5.016-5.016,5.015,5.015,0,0,0-5.016-5.015" transform="translate(494.878 -817.419)"/><path class="c" d="M-469.546,820.584a1.172,1.172,0,0,1-1.172,1.172,1.172,1.172,0,0,1-1.172-1.172,1.172,1.172,0,0,1,1.172-1.172,1.172,1.172,0,0,1,1.172,1.172" transform="translate(485.7 -816.03)"/></g></svg>